<mxfile>
    <diagram id="ELUFaOKxvJewbO4eGa1D" name="Page-1">
        <mxGraphModel dx="1098" dy="533" grid="1" gridSize="10" guides="1" tooltips="1" connect="1" arrows="1" fold="1" page="1" pageScale="1" pageWidth="850" pageHeight="1100" math="0" shadow="0">
            <root>
                <mxCell id="0"/>
                <mxCell id="1" parent="0"/>
                <mxCell id="5" value="" style="edgeStyle=orthogonalEdgeStyle;rounded=0;orthogonalLoop=1;jettySize=auto;html=1;fontFamily=Courier New;" edge="1" parent="1" source="2" target="4">
                    <mxGeometry relative="1" as="geometry"/>
                </mxCell>
                <mxCell id="2" value="Plain Text" style="rounded=0;whiteSpace=wrap;html=1;fontFamily=Courier New;" vertex="1" parent="1">
                    <mxGeometry x="155" y="70" width="90" height="30" as="geometry"/>
                </mxCell>
                <mxCell id="7" value="" style="edgeStyle=orthogonalEdgeStyle;rounded=0;orthogonalLoop=1;jettySize=auto;html=1;fontFamily=Courier New;" edge="1" parent="1" source="4" target="6">
                    <mxGeometry relative="1" as="geometry"/>
                </mxCell>
                <mxCell id="4" value="cipherText[i] = (plainText[i] + key[i])%26" style="rounded=0;whiteSpace=wrap;html=1;fontFamily=Courier New;" vertex="1" parent="1">
                    <mxGeometry x="80" y="170" width="240" height="30" as="geometry"/>
                </mxCell>
                <mxCell id="6" value="Cipher Text" style="rounded=0;whiteSpace=wrap;html=1;fontFamily=Courier New;" vertex="1" parent="1">
                    <mxGeometry x="155" y="270" width="90" height="30" as="geometry"/>
                </mxCell>
                <mxCell id="9" value="Plain Text" style="rounded=0;whiteSpace=wrap;html=1;fontFamily=Courier New;" vertex="1" parent="1">
                    <mxGeometry x="415" y="70" width="90" height="30" as="geometry"/>
                </mxCell>
                <mxCell id="14" value="" style="edgeStyle=orthogonalEdgeStyle;rounded=0;orthogonalLoop=1;jettySize=auto;html=1;fontFamily=Courier New;" edge="1" parent="1" source="11" target="9">
                    <mxGeometry relative="1" as="geometry"/>
                </mxCell>
                <mxCell id="11" value="plainText[i] = (cipherText[i] - key[i])%26" style="rounded=0;whiteSpace=wrap;html=1;fontFamily=Courier New;" vertex="1" parent="1">
                    <mxGeometry x="340" y="170" width="240" height="30" as="geometry"/>
                </mxCell>
                <mxCell id="13" value="" style="edgeStyle=orthogonalEdgeStyle;rounded=0;orthogonalLoop=1;jettySize=auto;html=1;fontFamily=Courier New;" edge="1" parent="1" source="12" target="11">
                    <mxGeometry relative="1" as="geometry"/>
                </mxCell>
                <mxCell id="12" value="Cipher Text" style="rounded=0;whiteSpace=wrap;html=1;fontFamily=Courier New;" vertex="1" parent="1">
                    <mxGeometry x="415" y="270" width="90" height="30" as="geometry"/>
                </mxCell>
                <mxCell id="15" value="Encryption" style="text;html=1;strokeColor=none;fillColor=none;align=center;verticalAlign=middle;whiteSpace=wrap;rounded=0;fontFamily=Courier New;fontStyle=1" vertex="1" parent="1">
                    <mxGeometry x="180" y="340" width="40" height="20" as="geometry"/>
                </mxCell>
                <mxCell id="16" value="Decryption" style="text;html=1;strokeColor=none;fillColor=none;align=center;verticalAlign=middle;whiteSpace=wrap;rounded=0;fontFamily=Courier New;fontStyle=1" vertex="1" parent="1">
                    <mxGeometry x="440" y="340" width="40" height="20" as="geometry"/>
                </mxCell>
            </root>
        </mxGraphModel>
    </diagram>
</mxfile>